# xmcd
#
# Track frame offsets:
#	150
#	21952
#	44085
#	61110
#
# Disc length: 1054 seconds
#
# Revision: 1
# Processed by: cddbd v1.4PL0 Copyright (c) Steve Scherf et al.
# Submitted via: audiograbber 1.82.02
#
DISCID=30041c04
DTITLE=Bonnie  Raitt - Have A Heart
DYEAR=1990
DGENRE=Pop
TTITLE0=Have A Heart (Album Version)
TTITLE1=I Will Not Be Denied
TTITLE2=Too Soon To Tell
TTITLE3=Have A Heart (Edit)
EXTD=
EXTT0=
EXTT1=
EXTT2=
EXTT3=
PLAYORDER=
